<svg width="101" height="37" viewBox="0 0 101 37" fill="none" xmlns="http://www.w3.org/2000/svg">
<mask id="mask0_1_733" style="mask-type:luminance" maskUnits="userSpaceOnUse" x="0" y="0" width="101" height="37">
<path d="M0.729614 0.126465H100.942V36.5098H0.729614V0.127854V0.126465Z" fill="white"/>
</mask>
<g mask="url(#mask0_1_733)">
<path fill-rule="evenodd" clip-rule="evenodd" d="M9.96121 24.6029L8.54721 20.2196C8.39741 19.7752 8.11601 18.7196 7.70441 17.0599H7.65401C7.48601 17.7738 7.22281 18.8279 6.85881 20.2224L5.46861 24.6071H9.96261L9.96121 24.6029ZM14.8514 31.6029H11.9954L10.433 26.6724H4.99961L3.50861 31.6029H0.729614L6.11541 14.8154H9.44042L14.8514 31.6043V31.6029Z" fill="white"/>
</g>
<mask id="mask1_1_733" style="mask-type:luminance" maskUnits="userSpaceOnUse" x="0" y="0" width="101" height="37">
<path d="M0.729614 0.126465H100.942V36.5098H0.729614" fill="white"/>
</mask>
<g mask="url(#mask1_1_733)">
<path fill-rule="evenodd" clip-rule="evenodd" d="M25.9436 25.5001C25.9436 24.3223 25.6804 23.3501 25.1512 22.5862C24.5716 21.7904 23.7932 21.3917 22.8174 21.3917C22.1566 21.3917 21.5574 21.614 21.0184 22.0515C20.4793 22.4936 20.1076 23.1042 19.9642 23.7834C19.8802 24.1167 19.8382 24.3862 19.8382 24.6029V26.6223C19.8382 27.5029 20.1042 28.2473 20.6446 28.8542C21.1822 29.4598 21.8808 29.764 22.7404 29.764C23.7484 29.764 24.5352 29.3723 25.098 28.5945C25.6608 27.8126 25.9422 26.7834 25.9422 25.5042M28.6722 25.407C28.6722 27.4654 28.1164 29.0917 27.002 30.2876C26.0038 31.3487 24.762 31.8806 23.2836 31.8806C21.6876 31.8806 20.5396 31.3084 19.8396 30.1626V36.5154H17.1656V23.482C17.1656 22.1862 17.132 20.8598 17.0676 19.5001H19.4238L19.5736 21.4223H19.624C20.52 19.9751 21.8738 19.2515 23.6938 19.2515C25.1162 19.2515 26.3034 19.8167 27.254 20.9459C28.2032 22.0779 28.6792 23.564 28.6792 25.407" fill="white"/>
</g>
<mask id="mask2_1_733" style="mask-type:luminance" maskUnits="userSpaceOnUse" x="0" y="0" width="101" height="37">
<path d="M0.729614 0.126465H100.942V36.5098H0.729614" fill="white"/>
</mask>
<g mask="url(#mask2_1_733)">
<path fill-rule="evenodd" clip-rule="evenodd" d="M39.8176 25.5001C39.8176 24.3223 39.5516 23.3501 39.0196 22.5862C38.4414 21.7904 37.6658 21.3917 36.69 21.3917C36.0278 21.3917 35.43 21.614 34.8896 22.0515C34.3505 22.4933 33.9792 23.1042 33.8368 23.7834C33.7528 24.1167 33.7108 24.3862 33.7108 24.6029V26.6223C33.7108 27.5029 33.9796 28.2473 34.5158 28.8542C35.0534 29.4584 35.7534 29.764 36.6158 29.764C37.6238 29.764 38.412 29.3723 38.972 28.5945C39.532 27.8126 39.8162 26.7834 39.8162 25.5042M42.5462 25.407C42.5462 27.4654 41.9862 29.0917 40.8732 30.2876C39.8736 31.3487 38.6332 31.8806 37.1548 31.8806C35.5546 31.8806 34.4066 31.3084 33.7108 30.1626V36.5154H31.0284V23.482C31.0284 22.1862 30.9948 20.8598 30.9304 19.5001H33.2866L33.4364 21.4223H33.4868C34.38 19.9751 35.7366 19.2515 37.558 19.2515C38.979 19.2515 40.1676 19.8167 41.1196 20.9459C42.0674 22.0779 42.5462 23.564 42.5462 25.407Z" fill="white"/>
</g>
<path fill-rule="evenodd" clip-rule="evenodd" d="M58.0596 26.8946C58.0596 28.3251 57.5598 29.4862 56.5714 30.3834C55.4822 31.3598 53.9632 31.8501 52.0144 31.8501C50.2154 31.8501 48.772 31.5001 47.6828 30.8043L48.303 28.5612C49.479 29.2584 50.7726 29.6071 52.1768 29.6071C53.1876 29.6071 53.973 29.3807 54.5344 28.9237C55.0986 28.4654 55.3814 27.8571 55.3814 27.0946C55.3814 26.414 55.1476 25.8418 54.6856 25.3765C54.2208 24.9126 53.4536 24.4793 52.3784 24.0821C49.4468 22.9848 47.9824 21.3834 47.9824 19.2737C47.9824 17.8959 48.5004 16.7696 49.5322 15.8848C50.5654 15.0071 51.936 14.5654 53.6398 14.5654C55.1658 14.5654 56.4328 14.8321 57.4408 15.3626L56.7688 17.5571C55.8196 17.0404 54.75 16.7834 53.5544 16.7834C52.6066 16.7834 51.8646 17.0168 51.334 17.4821C50.8888 17.8959 50.662 18.4015 50.662 19.0029C50.662 19.6654 50.9196 20.2154 51.432 20.6459C51.88 21.0432 52.692 21.4765 53.8638 21.9404C55.3058 22.5237 56.3628 23.2043 57.0418 23.9821C57.7236 24.7626 58.0638 25.7348 58.0638 26.8946M66.9454 21.5196H63.9914V27.3946C63.9914 28.8918 64.5122 29.6376 65.5552 29.6376C66.0354 29.6376 66.4344 29.5959 66.7452 29.5126L66.8208 31.5543C66.2944 31.7529 65.6 31.8529 64.739 31.8529C63.6792 31.8529 62.8532 31.5279 62.2568 30.8807C61.6604 30.2307 61.3608 29.1446 61.3608 27.6168V21.5098H59.6024V19.4959H61.3622V17.2793L63.9942 16.4821V19.4959H66.9482V21.5182L66.9454 21.5196ZM77.4678 25.5154C77.4678 24.4071 77.2298 23.4557 76.751 22.6598C76.1882 21.6987 75.3832 21.2182 74.343 21.2182C73.2692 21.2182 72.4446 21.6987 71.886 22.6598C71.4044 23.4557 71.165 24.4237 71.165 25.5654C71.165 26.6765 71.403 27.6293 71.886 28.4237C72.4656 29.3848 73.272 29.8654 74.322 29.8654C75.344 29.8654 76.1462 29.3751 76.73 28.3987C77.22 27.5862 77.4678 26.6265 77.4678 25.5154ZM80.2468 25.4543C80.2468 27.3154 79.7148 28.8432 78.6564 30.0376C77.5462 31.2668 76.0748 31.8807 74.238 31.8807C72.4656 31.8807 71.0558 31.2904 70.0044 30.114C68.9572 28.9334 68.4308 27.4473 68.4308 25.6557C68.4308 23.7807 68.974 22.2432 70.0548 21.0487C71.1398 19.8543 72.6 19.2543 74.4368 19.2543C76.2064 19.2543 77.6288 19.8459 78.704 21.0223C79.733 22.1668 80.244 23.6432 80.244 25.4529M88.9604 21.8668C88.6815 21.8157 88.3984 21.7906 88.1148 21.7918C87.1712 21.7918 86.4432 22.1501 85.9308 22.8668C85.4828 23.4973 85.2616 24.2946 85.2616 25.2557V31.6098H82.582V23.314C82.582 21.9209 82.554 20.6473 82.5036 19.5029H84.8374L84.9354 21.8196H85.0096C85.2938 21.0251 85.7376 20.3834 86.3494 19.9029C86.9069 19.4831 87.5872 19.2554 88.287 19.2543C88.532 19.2543 88.7546 19.2709 88.9534 19.3029L88.9562 21.8696L88.9604 21.8668ZM98.388 24.2834C98.4076 23.4848 98.2312 22.7973 97.87 22.214C97.4038 21.4668 96.6898 21.0932 95.7336 21.0932C94.8558 21.0932 94.1432 21.4571 93.6 22.1904C93.1548 22.7709 92.8888 23.4682 92.8076 24.2807L98.388 24.2834ZM100.944 24.9807C100.944 25.4626 100.912 25.8696 100.846 26.2029H92.8076C92.8356 27.3973 93.2276 28.3112 93.9724 28.9418C94.65 29.5029 95.5264 29.7848 96.6016 29.7848C97.7916 29.7848 98.878 29.5973 99.8552 29.2154L100.275 31.0807C99.1342 31.5807 97.7832 31.8307 96.232 31.8307C94.3616 31.8307 92.893 31.2779 91.8248 30.1751C90.7608 29.0709 90.2246 27.5862 90.2246 25.7279C90.2246 23.9043 90.7202 22.3848 91.7142 21.1723C92.7558 19.8779 94.1642 19.2307 95.9324 19.2307C97.6712 19.2307 98.9872 19.8779 99.8804 21.1723C100.587 22.1973 100.944 23.4682 100.944 24.9779V24.9807ZM6.26664 5.36677L5.57084 3.214C5.49804 2.99178 5.36364 2.47789 5.15644 1.65844H5.13124C5.04724 2.01122 4.92404 2.5265 4.73924 3.214L4.05744 5.36677H6.26664ZM8.66764 8.80428H7.26764L6.49764 6.38066H3.82644L3.09564 8.80566H1.72644L4.37244 0.555664H6.00764L8.66764 8.80428ZM15.2896 2.85705L13.0426 8.80428H11.7616L9.59164 2.85705H11.0056L12.0192 6.00289C12.19 6.53066 12.3356 7.03066 12.4448 7.50705H12.4826C12.5806 7.07928 12.7262 6.5765 12.9082 6.00289L13.9064 2.85566H15.2854L15.2896 2.85705ZM19.8816 5.84316C18.42 5.84316 17.6878 6.19872 17.6878 7.04178C17.6878 7.66677 18.0658 7.97233 18.5908 7.97233C19.2628 7.97233 19.883 7.45844 19.883 6.76122V5.84455L19.8816 5.84316ZM20.0678 8.80566L19.9698 8.12094H19.932C19.5302 8.67233 18.945 8.94039 18.2002 8.94039C17.1362 8.94039 16.3802 8.19455 16.3802 7.19039C16.3802 5.72094 17.6486 4.96261 19.8438 4.96261V4.8515C19.8438 4.06816 19.4294 3.6765 18.6118 3.6765C18.0628 3.6667 17.5234 3.82055 17.0634 4.11816L16.7946 3.24872C17.3448 2.90566 18.0266 2.73483 18.833 2.73483C20.3814 2.73483 21.1626 3.55427 21.1626 5.19594V7.38483C21.1626 7.98761 21.1878 8.45427 21.2466 8.80705H20.0636L20.0678 8.80566Z" fill="white"/>
<mask id="mask3_1_733" style="mask-type:luminance" maskUnits="userSpaceOnUse" x="0" y="0" width="101" height="37">
<path d="M0.729614 0.126465H100.942V36.5098H0.729614V0.127854V0.126465Z" fill="white"/>
</mask>
<g mask="url(#mask3_1_733)">
<path fill-rule="evenodd" clip-rule="evenodd" d="M24.7844 8.80711H23.4684V2.85711H24.7844V8.80711ZM24.1012 1.87656C23.9968 1.87679 23.8934 1.8562 23.7971 1.81602C23.7008 1.77585 23.6137 1.7169 23.5408 1.64267C23.468 1.56845 23.4109 1.48046 23.373 1.38392C23.335 1.28739 23.317 1.18429 23.32 1.08072C23.32 0.630724 23.6742 0.298779 24.1264 0.298779C24.5772 0.298779 24.9426 0.632113 24.93 1.0835C24.93 1.56128 24.5898 1.87934 24.1012 1.87934V1.87656ZM28.4412 8.80711H27.1252V0.126557H28.4412V8.80711ZM33.8592 5.84322C32.3934 5.84322 31.6612 6.19878 31.6612 7.04184C31.6612 7.66684 32.0392 7.97239 32.5642 7.97239C33.232 7.97239 33.855 7.4585 33.855 6.76128V5.84461L33.8592 5.84322ZM34.0412 8.80572L33.9432 8.121H33.9068C33.5036 8.67239 32.9184 8.94045 32.1736 8.94045C31.1138 8.94045 30.3564 8.19461 30.3564 7.19045C30.3564 5.721 31.6248 4.96267 33.8214 4.96267V4.85156C33.8214 4.06822 33.4056 3.67656 32.5894 3.67656C32.0014 3.67656 31.4904 3.82378 31.041 4.11822L30.775 3.24739C31.3238 2.90711 32.007 2.7335 32.812 2.7335C34.3604 2.7335 35.143 3.55295 35.143 5.19739V7.38489C35.143 7.98628 35.1668 8.45156 35.227 8.80572H34.0412ZM40.2096 3.77378C39.4508 3.77378 38.7564 4.43489 38.7564 5.35295V6.39461C38.7564 7.21406 39.3794 7.88767 40.1844 7.88767C41.1728 7.88767 41.7594 7.07933 41.7594 5.79461C41.7594 4.59461 41.1476 3.77378 40.2082 3.77378M40.4742 8.94045C39.6342 8.94045 39.0112 8.58489 38.608 7.88767H38.5828L38.5058 8.80434H37.3858C37.4194 8.32934 37.432 7.79045 37.432 7.20295V0.123779H38.7508V3.72378H38.7746C39.1638 3.06267 39.7966 2.73211 40.6646 2.73211C42.0926 2.73211 43.0922 3.9585 43.0922 5.746C43.0922 7.59322 41.982 8.94045 40.47 8.94045M46.364 8.80711H45.048V0.126557H46.364V8.80711ZM52.3252 5.20711C52.3252 4.29045 51.8632 3.64045 51.0204 3.64045C50.2616 3.64045 49.668 4.30156 49.5784 5.20711H52.3252ZM53.5334 6.14878H49.5784C49.6064 7.27656 50.3484 7.91267 51.4446 7.91267C52.0326 7.91267 52.5674 7.81267 53.0406 7.63072L53.2464 8.54739C52.6864 8.79322 52.0284 8.91545 51.2584 8.91545C49.4062 8.91545 48.3086 7.74045 48.3086 5.91545C48.3086 4.09322 49.4314 2.721 51.1128 2.721C52.6206 2.721 53.5768 3.84878 53.5768 5.55017C53.5796 5.77933 53.567 5.98767 53.5306 6.14739L53.5334 6.14878ZM61.5694 3.70017C60.6174 3.70017 60.0056 4.59322 60.0056 5.84183C60.0056 7.06406 60.6314 7.9585 61.5596 7.9585C62.4836 7.9585 63.1066 7.00295 63.1066 5.81406C63.1066 4.60572 62.4962 3.69878 61.5708 3.69878M61.5176 8.94045C59.7858 8.94045 58.6616 7.64322 58.6616 5.88072C58.6616 4.04461 59.8096 2.7335 61.6184 2.7335C63.3222 2.7335 64.4716 3.96961 64.4716 5.78628C64.4716 7.64739 63.2886 8.94322 61.5176 8.94322M71.5556 8.8085H70.2396V5.39184C70.2396 4.34045 69.8364 3.81267 69.0426 3.81267C68.2628 3.81267 67.7238 4.48628 67.7238 5.271V8.8085H66.4078V4.5585C66.4078 4.0335 66.3938 3.46961 66.3588 2.8585H67.518L67.5796 3.77517H67.616C67.966 3.13628 68.6898 2.7335 69.492 2.7335C70.738 2.7335 71.5542 3.68767 71.5542 5.24184V8.80572L71.5556 8.8085ZM80.1726 3.85017H78.7236V6.73906C78.7236 7.47517 78.9784 7.84183 79.4894 7.84183C79.7218 7.84183 79.9178 7.81684 80.0774 7.78072L80.1124 8.78489C79.8562 8.88211 79.5132 8.93211 79.0904 8.93211C78.0502 8.93211 77.4314 8.35711 77.4314 6.84878V3.84878H76.5676V2.85711H77.4314V1.76684L78.7236 1.37378V2.85711H80.1726V3.84739V3.85017ZM87.1488 8.8085H85.83V5.41961C85.83 4.35295 85.4268 3.81406 84.6344 3.81406C83.9512 3.81406 83.3184 4.27934 83.3184 5.22239V8.81128H81.9996V0.126557H83.3184V3.70017H83.3464C83.758 3.05156 84.3544 2.7335 85.1244 2.7335C86.3816 2.7335 87.1488 3.71545 87.1488 5.26961V8.8085ZM92.6718 5.21128C92.6718 4.29461 92.2098 3.64184 91.367 3.64184C90.611 3.64184 90.016 4.30434 89.9292 5.21128H92.6732H92.6718ZM93.88 6.15156H89.9264C89.9516 7.27933 90.6936 7.91545 91.7912 7.91545C92.3792 7.91545 92.914 7.81545 93.3872 7.6335L93.5944 8.55017C93.0344 8.796 92.3764 8.91822 91.6064 8.91822C89.7514 8.91822 88.6552 7.74322 88.6552 5.91822C88.6552 4.096 89.7752 2.72378 91.4594 2.72378C92.9714 2.72378 93.9234 3.85156 93.9234 5.55295C93.929 5.78211 93.9164 5.99045 93.8814 6.15017L93.88 6.15156Z" fill="white"/>
</g>
</svg>
