<svg width="150" height="150" viewBox="0 0 150 150" fill="none" xmlns="http://www.w3.org/2000/svg">
<circle cx="75" cy="75" r="74.5" fill="white" stroke="#0066FF"/>
<path d="M83.5747 57.9128L83.5746 57.9129L83.5858 57.9195C83.7963 58.0421 83.9835 58.2101 84.1351 58.4151C84.2867 58.6202 84.3991 58.8576 84.464 59.1135C84.5289 59.3693 84.5447 59.6371 84.5102 59.9001C84.4757 60.1632 84.3918 60.4148 84.2647 60.6398L84.2647 60.6397L84.2604 60.6475L70.875 85.351C70.8747 85.3516 70.8744 85.3522 70.874 85.3529C70.7067 85.6547 70.4709 85.9014 70.1927 86.0716C69.9143 86.242 69.6017 86.331 69.2853 86.3324L69.275 86.3324L69.2648 86.3329C68.9626 86.3467 68.661 86.2647 68.3977 86.0934L68.391 86.0891L68.3842 86.0849C68.1756 85.9585 67.9903 85.788 67.8404 85.5817C67.6905 85.3753 67.5792 85.1376 67.5143 84.882C67.4494 84.6264 67.4326 84.3591 67.465 84.096C67.4974 83.8328 67.5783 83.5804 67.7018 83.3532L67.7022 83.3525L81.0897 58.6452L81.0913 58.6422C81.213 58.4139 81.3748 58.2156 81.5659 58.0578C81.7569 57.9001 81.9735 57.7857 82.2027 57.7195C82.4318 57.6535 82.6702 57.6365 82.9048 57.6694C83.1394 57.7022 83.3671 57.7845 83.5747 57.9128ZM73.0629 65.7054L73.0622 65.7243L73.063 65.7433C73.1496 67.9051 72.4281 70.0102 71.0649 71.5976C69.7081 73.1775 67.8281 74.1148 65.8376 74.218C63.8433 74.1147 61.9594 73.1784 60.5966 71.5992C59.2275 70.0126 58.4977 67.907 58.5747 65.741L58.5753 65.7243L58.5748 65.7076C58.5073 63.548 59.2414 61.4522 60.6095 59.8739C61.9712 58.3029 63.8496 57.3718 65.8376 57.2685C67.8218 57.3718 69.6962 58.3038 71.0519 59.8755C72.4141 61.4546 73.1399 63.5499 73.0629 65.7054ZM65.7764 70.2174L65.8376 70.225L65.8989 70.2174C66.9345 70.0894 67.8735 69.535 68.5192 68.6851C69.1549 67.8484 69.4594 66.7883 69.377 65.7258C69.4705 64.6594 69.1697 63.5917 68.5311 62.7511C67.8823 61.8973 66.9352 61.345 65.8932 61.2284L65.8376 61.2222L65.7819 61.2284C64.7383 61.3452 63.7884 61.895 63.1337 62.7462C62.4879 63.5858 62.1778 64.6544 62.2611 65.7257C62.1887 66.7932 62.5024 67.8543 63.1453 68.6901C63.7971 69.5376 64.7389 70.0895 65.7764 70.2174ZM78.9372 78.2568L78.9379 78.2379L78.9372 78.219C78.8602 76.0635 79.586 73.9682 80.9482 72.389C82.3039 70.8174 84.1783 69.8853 86.1626 69.782C88.1505 69.8854 90.029 70.8165 91.3906 72.3875C92.7588 73.9658 93.4928 76.0616 93.4253 78.2212L93.4248 78.2379L93.4254 78.2546C93.5024 80.4206 92.7727 82.5261 91.4035 84.1128C90.0408 85.6919 88.1568 86.6282 86.1625 86.7316C84.172 86.6283 82.292 85.6911 80.9352 84.1112C79.572 82.5238 78.8505 80.4187 78.9372 78.2568ZM86.1012 82.731L86.1625 82.7386L86.2238 82.731C87.2612 82.603 88.2031 82.0511 88.8549 81.2037C89.4977 80.3679 89.8115 79.3068 89.739 78.2393C89.8223 77.1679 89.5122 76.0994 88.8664 75.2598C88.2117 74.4085 87.2618 73.8588 86.2182 73.742L86.1597 73.7354L86.1012 73.7426C85.0656 73.8707 84.1266 74.425 83.4809 75.2749C82.8447 76.1123 82.5402 77.1734 82.6233 78.2368C82.5402 79.3002 82.8447 80.3613 83.4809 81.1987C84.1266 82.0486 85.0656 82.603 86.1012 82.731Z" fill="#0066FF" stroke="#0066FF"/>
<path d="M75.9832 42.5151L76 42.5157L76.0168 42.5151C83.5799 42.2612 90.9347 45.217 96.4651 50.7445C101.993 56.2696 105.245 63.9129 105.5 72C105.245 80.0871 101.993 87.7304 96.4651 93.2555C90.9347 98.783 83.5799 101.739 76.0168 101.485L76 101.484L75.9832 101.485C68.4201 101.739 61.0653 98.783 55.5349 93.2555C50.007 87.7304 46.7546 80.0871 46.5002 72C46.7546 63.9129 50.007 56.2696 55.5349 50.7445C61.0653 45.217 68.4201 42.2612 75.9832 42.5151ZM50.1879 71.9809L50.1871 72L50.1879 72.0191C50.456 79.0279 53.317 85.6448 58.1544 90.4201C62.9882 95.1917 69.4033 97.7362 76 97.4875C82.5967 97.7362 89.0118 95.1917 93.8456 90.4201C98.683 85.6448 101.544 79.0279 101.812 72.0191L101.813 72L101.812 71.9809C101.544 64.9721 98.683 58.3552 93.8456 53.58C89.0118 48.8083 82.5967 46.2638 76 46.5125C69.4033 46.2638 62.9882 48.8083 58.1544 53.58C53.317 58.3552 50.456 64.9721 50.1879 71.9809Z" fill="#0066FF" stroke="#0066FF"/>
</svg>
